<svg version="1.2" xmlns="http://www.w3.org/2000/svg" viewBox="0 0 4096 1800" width="4096" height="1800">
	<title>file</title>
	<style>
		.s0 { fill: #080b13;stroke: #01e6dc;paint-order:stroke fill markers;stroke-linejoin: round;stroke-width: 50 } 
	</style>
	<path id="Path 0" class="s0" d="m1890 0.63c-1.92 0.16-48.72 0.77-104 1.36-55.28 0.58-123.9 1.49-152.5 2.03-28.6 0.53-70.9 1.42-94 1.98-23.1 0.56-57.3 1.47-76 2.02-18.7 0.54-46.38 1.45-61.5 2-15.13 0.56-43.03 1.69-62 2.51-18.97 0.83-47.55 2.18-63.5 3.01-15.95 0.83-42.5 2.4-59 3.5-16.5 1.09-43.72 3.12-60.5 4.5-16.78 1.38-41.08 3.64-54 5.01-12.92 1.38-32.5 3.64-43.5 5.02-11 1.39-28.78 3.89-39.5 5.56-10.73 1.67-28.5 4.82-39.5 7.01-11 2.19-28.1 5.93-38 8.32-9.9 2.39-22.95 5.76-29 7.49-6.05 1.73-19.33 5.88-29.5 9.22-10.17 3.34-26.38 9.11-36 12.82-9.63 3.71-26.5 10.66-37.5 15.45-11 4.79-36.42 16.8-56.5 26.7-20.08 9.89-50.45 25.22-67.5 34.06-17.05 8.84-40.23 21.03-51.5 27.09-11.27 6.06-30.63 16.63-43 23.49-12.38 6.87-31.73 17.88-43 24.49-11.27 6.6-27.25 16.06-35.5 21.02-8.25 4.96-23.55 14.19-34 20.52-10.45 6.33-28.45 17.36-40 24.5-11.55 7.15-30.23 18.85-41.5 26-11.27 7.15-34.23 22.09-51 33.2-16.77 11.11-38.38 25.73-48 32.49-9.63 6.75-25.6 18.18-35.5 25.38-9.9 7.21-25.2 18.7-34 25.55-8.8 6.84-23.88 18.99-33.5 26.98-9.63 8-24.25 20.68-32.5 28.19-8.25 7.5-23.11 21.92-33.03 32.02-9.92 10.11-22.79 24-28.6 30.88-5.81 6.87-14.82 18.12-20.02 25-5.19 6.87-12.4 17-16.01 22.5-3.61 5.5-8.6 13.37-11.08 17.5-2.49 4.12-7.48 13.12-11.09 20-3.6 6.87-8.21 16.33-10.22 21-2.02 4.67-5.67 13.67-8.11 20-2.43 6.33-6.4 18.25-8.8 26.5-2.41 8.25-5.73 21.75-7.4 30-1.66 8.25-3.71 20.17-4.56 26.5-0.85 6.33-2.23 18.81-3.06 27.75-0.84 9-1.52 26.51-1.52 39.25 0 12.65 0.47 28.51 1.05 35.25 0.57 6.74 1.73 19.45 2.56 28.25 0.84 8.8 2.62 24.1 3.96 34 1.34 9.9 3.58 24.98 4.99 33.5 1.41 8.52 5.03 27.87 8.05 43 3.01 15.12 7.75 37.4 10.51 49.5 2.76 12.1 8.17 34.6 12.02 50 3.84 15.4 11.27 43.97 16.5 63.5 5.23 19.53 14.25 52.37 20.04 73 5.79 20.62 16.12 56.17 22.95 79 6.83 22.83 17.63 57.47 23.99 77 6.36 19.53 14.95 45.17 19.09 57 4.13 11.83 10.34 29.15 13.79 38.5 3.45 9.35 9.67 25.55 13.82 36 4.15 10.45 11.23 27.33 15.72 37.5 4.49 10.17 11.7 25.47 16.01 34 4.31 8.53 10.92 20.67 14.68 27 3.76 6.33 9.49 15.1 12.73 19.5 3.25 4.4 8.41 10.64 11.47 13.87 3.06 3.23 8.95 8.17 13.07 10.96 4.13 2.8 10.2 7.38 13.5 10.18 3.3 2.8 10.73 8.84 16.5 13.42 5.77 4.58 14.32 10.58 19 13.33 4.68 2.75 12.32 6.69 17 8.75 4.68 2.06 14.35 5.61 21.5 7.9 7.15 2.28 19.98 5.7 28.5 7.59 8.52 1.9 23.82 4.8 34 6.45 10.18 1.66 26.82 4.13 37 5.49 10.18 1.37 29.07 3.61 42 5 12.93 1.38 39.25 3.86 58.5 5.5 19.25 1.64 51.65 4.11 72 5.5 20.35 1.38 54.77 3.64 76.5 5.02 21.73 1.38 56.6 3.4 77.5 4.5 20.9 1.09 53.3 2.67 72 3.5 18.7 0.83 52.23 2.19 74.5 3.02 22.27 0.83 62.1 2.17 88.5 2.99 26.4 0.82 65.55 1.95 87 2.5 21.45 0.55 59.7 1.46 85 2.02 25.3 0.55 71.42 1.46 102.5 2.01 31.08 0.55 88 1.45 126.5 1.99 38.5 0.54 115.22 1.42 170.5 1.96 55.28 0.54 162.38 1.52 238 2.17 83.25 0.71 205.16 0.95 309 0.59 94.32-0.32 223.7-1.05 287.5-1.62 63.8-0.56 153.57-1.49 199.5-2.07 45.93-0.57 111.4-1.49 145.5-2.04 34.1-0.55 85.18-1.45 113.5-2 28.32-0.54 70.18-1.44 93-1.99 22.82-0.55 57.47-1.45 77-2 19.53-0.56 49.68-1.46 67-2.02 17.32-0.56 49.72-1.69 72-2.51 22.28-0.82 55.8-2.17 74.5-3 18.7-0.84 54.93-2.63 80.5-4 25.57-1.37 70.57-4.06 100-5.98 29.43-1.92 62.72-4.19 74-5.04 11.28-0.84 33.55-2.65 49.5-4.02 15.95-1.36 39.57-3.61 52.5-4.99 12.93-1.38 31.82-3.62 42-4.99 10.18-1.36 26.82-3.83 37-5.49 10.18-1.65 25.7-4.61 34.5-6.56 8.8-1.96 22.75-5.79 31-8.51 8.25-2.73 19.72-7.32 25.5-10.22 5.78-2.89 12.75-6.77 15.5-8.61 2.75-1.85 8.15-5.85 12-8.88 3.85-3.04 10.6-8.53 15-12.2 4.4-3.68 11.15-8.83 15-11.46 3.85-2.63 9.4-7.08 12.33-9.9 2.93-2.81 8.4-9.16 12.15-14.11 3.75-4.95 10.04-14.4 13.97-21 3.94-6.6 10.45-18.53 14.49-26.5 4.03-7.97 10.26-21.03 13.84-29 3.59-7.97 8.32-18.78 10.52-24 2.2-5.22 6.57-16.03 9.7-24 3.13-7.97 8.54-22.15 12.02-31.5 3.48-9.35 10.13-28.03 14.79-41.5 4.66-13.47 13.23-39.13 19.05-57 5.82-17.88 16.17-51.17 23-74 6.84-22.83 17.17-58.38 22.96-79 5.79-20.63 14.81-53.47 20.05-73 5.23-19.53 12.5-47.42 16.15-62 3.65-14.58 8.64-35.28 11.1-46 2.46-10.72 6.27-28.05 8.47-38.5 2.2-10.45 5.75-28.45 7.88-40 2.14-11.55 5.24-30.45 6.89-42 1.65-11.55 3.71-27.3 4.56-35 0.86-7.7 2.24-22.66 3.07-33.25 0.83-10.59 1.51-29.71 1.51-42.5 0-12.79-0.43-27.08-0.95-31.75-0.51-4.67-1.45-13.67-2.08-20-0.62-6.33-2.24-18.02-3.59-26-1.34-7.98-4.05-21.02-6.01-29-1.96-7.98-5.6-20.58-8.09-28-2.49-7.42-7-19.35-10.02-26.5-3.02-7.15-7.63-17.27-10.25-22.5-2.63-5.23-7.37-14-10.54-19.5-3.17-5.5-9.16-15.17-13.32-21.5-4.15-6.33-11.81-17.13-17.01-24-5.2-6.88-13.77-17.67-19.05-23.99-5.27-6.32-18.14-20.22-28.59-30.89-10.45-10.67-25.75-25.54-34-33.04-8.25-7.49-22.87-20.17-32.5-28.17-9.62-7.99-24.7-20.14-33.5-26.98-8.8-6.85-22.53-17.21-30.5-23.02-7.97-5.82-21.47-15.52-30-21.55-8.53-6.03-23.82-16.63-34-23.54-10.18-6.91-29.75-19.9-43.5-28.85-13.75-8.96-37.6-24.17-53-33.8-15.4-9.63-38.35-23.8-51-31.49-12.65-7.68-30.65-18.57-40-24.18-9.35-5.62-26.22-15.61-37.5-22.21-11.28-6.6-28.15-16.27-37.5-21.5-9.35-5.23-28.7-15.81-43-23.51-14.3-7.7-38.15-20.31-53-28.02-14.85-7.72-41.85-21.43-60-30.47-18.15-9.05-38.62-19.05-45.5-22.24-6.87-3.18-21.72-9.73-33-14.55-11.28-4.83-26.57-11.02-34-13.77-7.43-2.75-21.15-7.5-30.5-10.56-9.35-3.06-21.95-6.98-28-8.71-6.05-1.74-19.1-5.11-29-7.5-9.9-2.4-27.22-6.18-38.5-8.4-11.28-2.23-29.05-5.39-39.5-7.01-10.45-1.62-28-4.09-39-5.48-11-1.38-30.57-3.64-43.5-5.02-12.93-1.37-37.22-3.63-54-5.01-16.78-1.38-44-3.4-60.5-4.49-16.5-1.09-43.05-2.67-59-3.5-15.95-0.84-44.3-2.2-63-3.02-18.7-0.82-53.57-2.17-77.5-2.99-23.93-0.82-61.05-1.96-82.5-2.53-21.45-0.56-58.8-1.46-83-1.99-24.2-0.53-78.88-1.43-121.5-2.01-42.62-0.57-109.22-1.48-148-2.03-38.78-0.55-133.5-0.92-210.5-0.82-77 0.1-141.58 0.31-143.5 0.47z"/>
</svg>